; NON-PLATED HOLES START AT T1
; THROUGH (PLATED) HOLES START AT T100
M48
INCH
T1C0.078740
T2C0.125984
T100C0.035000
T101C0.038000
%
T1
X005453Y003708
X005453Y015912
X015785Y015910
X015785Y003708
T2
X001218Y015912
X024840Y001345
X024840Y015912
X001218Y001345
T100
X019391Y006857
X015328Y010007
X015391Y006857
X015328Y013156
X015328Y011582
X019328Y011582
X019328Y013156
X019328Y010007
T101
X010793Y014840
X024053Y012188
X011974Y004889
X012793Y014840
X024053Y004101
X010974Y004889
X003974Y004889
X008304Y010188
X024053Y007220
X014793Y014840
X006974Y004889
X020974Y004889
X003793Y014840
X019974Y004889
X011092Y001739
X018360Y001739
X017974Y004889
X005974Y001739
X015974Y004889
X009092Y001739
X018793Y014840
X004974Y004889
X007974Y004889
X020509Y001739
X014974Y004889
X006974Y001739
X013793Y014840
X024053Y008220
X002793Y014840
X017360Y001739
X002974Y004889
X008974Y004889
X024053Y014188
X012974Y004889
X007793Y014840
X009974Y004889
X008304Y011188
X019793Y014840
X016793Y014840
X010092Y001739
X003974Y001739
X018974Y004889
X008793Y014840
X009793Y014840
X016974Y004889
X006793Y014840
X004793Y014840
X005974Y004889
X005793Y014840
X024053Y006220
X024053Y009220
X004974Y001739
X014210Y001739
X013974Y004889
X017793Y014840
X024053Y013188
X024053Y003101
X012092Y001739
X008304Y009188
X015793Y014840
X015210Y001739
X021509Y001739
X024053Y011188
X011793Y014840
X020793Y014840
X008304Y008188
T00
M30
