G04 MADE WITH FRITZING*
G04 WWW.FRITZING.ORG*
G04 DOUBLE SIDED*
G04 HOLES PLATED*
G04 CONTOUR ON CENTER OF CONTOUR VECTOR*
%ASAXBY*%
%FSLAX23Y23*%
%MOIN*%
%OFA0B0*%
%SFA1.0B1.0*%
%ADD10C,0.085000*%
%ADD11C,0.088000*%
%ADD12C,0.135984*%
%ADD13C,0.088740*%
%LNMASK1*%
G90*
G70*
G54D10*
X1539Y686D03*
X1939Y686D03*
G54D11*
X2097Y489D03*
X1997Y489D03*
X1897Y489D03*
X1797Y489D03*
X1697Y489D03*
X1597Y489D03*
X1497Y489D03*
X1397Y489D03*
X1297Y489D03*
X1197Y489D03*
X1097Y489D03*
X997Y489D03*
X897Y489D03*
X797Y489D03*
X697Y489D03*
X597Y489D03*
X497Y489D03*
X397Y489D03*
X297Y489D03*
X2079Y1484D03*
X1979Y1484D03*
X1879Y1484D03*
X1779Y1484D03*
X1679Y1484D03*
X1579Y1484D03*
X1479Y1484D03*
X1379Y1484D03*
X1279Y1484D03*
X1179Y1484D03*
X1079Y1484D03*
X979Y1484D03*
X879Y1484D03*
X779Y1484D03*
X679Y1484D03*
X579Y1484D03*
X479Y1484D03*
X379Y1484D03*
X279Y1484D03*
X1521Y174D03*
X1421Y174D03*
X1836Y174D03*
X1736Y174D03*
X2405Y310D03*
X2405Y410D03*
X2151Y174D03*
X2051Y174D03*
X831Y819D03*
X831Y919D03*
X831Y1019D03*
X831Y1119D03*
X2405Y622D03*
X2405Y722D03*
X2405Y822D03*
X2405Y922D03*
X1209Y174D03*
X1109Y174D03*
X1009Y174D03*
X909Y174D03*
X697Y174D03*
X597Y174D03*
X497Y174D03*
X397Y174D03*
G54D12*
X2484Y135D03*
X2484Y1591D03*
G54D13*
X545Y1591D03*
X545Y371D03*
G54D12*
X122Y1591D03*
X122Y135D03*
G54D13*
X1579Y1591D03*
X1579Y371D03*
G54D11*
X2405Y1419D03*
X2405Y1319D03*
X2405Y1219D03*
X2405Y1119D03*
G54D10*
X1533Y1001D03*
X1933Y1001D03*
X1533Y1316D03*
X1933Y1316D03*
X1533Y1158D03*
X1933Y1158D03*
G04 End of Mask1*
M02*