; NON-PLATED HOLES START AT T1
; THROUGH (PLATED) HOLES START AT T100
M48
INCH
T1C0.125984
T2C0.078740
T100C0.038000
T101C0.035000
%
T1
X024840Y015912
X024840Y001345
X001218Y015912
X001218Y001345
T2
X005453Y015912
X015785Y015910
X015785Y003708
X005453Y003708
T100
X014793Y014840
X024053Y006220
X012793Y014840
X019974Y004889
X005793Y014840
X008305Y010188
X024053Y013188
X015793Y014840
X003974Y001739
X021509Y001739
X016974Y004889
X008305Y008188
X014210Y001739
X013974Y004889
X024053Y009220
X002793Y014840
X024053Y003101
X009793Y014840
X009974Y004889
X008793Y014840
X008305Y009188
X005974Y004889
X004793Y014840
X016793Y014840
X008974Y004889
X018974Y004889
X019793Y014840
X008305Y011188
X015210Y001739
X017360Y001739
X010092Y001739
X002974Y004889
X020974Y004889
X004974Y004889
X007793Y014840
X006793Y014840
X024053Y014188
X024053Y004101
X006974Y001739
X010793Y014840
X012974Y004889
X003974Y004889
X014974Y004889
X005974Y001739
X003793Y014840
X020509Y001739
X024053Y012188
X007974Y004889
X011974Y004889
X017974Y004889
X024053Y007220
X013793Y014840
X024053Y011188
X024053Y008220
X015974Y004889
X010974Y004889
X018793Y014840
X009092Y001739
X006974Y004889
X018360Y001739
X012092Y001739
X017793Y014840
X011793Y014840
X004974Y001739
X011092Y001739
X020793Y014840
T101
X019328Y010007
X019328Y013156
X015328Y013156
X015328Y010007
X015391Y006857
X015328Y011582
X019391Y006857
X019328Y011582
T00
M30
