<?xml version="1.0" encoding="UTF-8" standalone="no"?>
<!-- Created with Inkscape (http://www.inkscape.org/) -->

<svg
   xmlns:dc="http://purl.org/dc/elements/1.1/"
   xmlns:cc="http://creativecommons.org/ns#"
   xmlns:rdf="http://www.w3.org/1999/02/22-rdf-syntax-ns#"
   xmlns:svg="http://www.w3.org/2000/svg"
   xmlns="http://www.w3.org/2000/svg"
   xmlns:sodipodi="http://sodipodi.sourceforge.net/DTD/sodipodi-0.dtd"
   xmlns:inkscape="http://www.inkscape.org/namespaces/inkscape"
   sodipodi:docname="box.svg"
   id="svg8"
   version="1.1"
   viewBox="0 0 800 400"
   height="400mm"
   width="800mm"
   inkscape:version="0.92.3 (2405546, 2018-03-11)">
  <sodipodi:namedview
     inkscape:window-maximized="0"
     inkscape:window-y="182"
     inkscape:window-x="1451"
     inkscape:window-height="1838"
     inkscape:window-width="2048"
     showgrid="false"
     inkscape:current-layer="svg8"
     inkscape:document-units="mm"
     inkscape:cy="-199.03541"
     inkscape:cx="2375.6733"
     inkscape:zoom="0.37751492"
     inkscape:pageshadow="2"
     inkscape:pageopacity="0.0"
     borderopacity="1.0"
     bordercolor="#666666"
     pagecolor="#ffffff"
     id="base"
     showguides="true"
     inkscape:guide-bbox="true"
     inkscape:measure-start="2061.33,975.118"
     inkscape:measure-end="2061.33,786.142">
    <sodipodi:guide
       inkscape:locked="false"
       id="guide4895"
       orientation="1,0"
       position="0,462.3757" />
  </sodipodi:namedview>
  <defs
     id="defs2" />
  <metadata
     id="metadata5">
    <rdf:RDF>
      <cc:Work
         rdf:about="">
        <dc:format>image/svg+xml</dc:format>
        <dc:type
           rdf:resource="http://purl.org/dc/dcmitype/StillImage" />
        <dc:title></dc:title>
      </cc:Work>
    </rdf:RDF>
  </metadata>
  <g
     transform="translate(0,103)"
     inkscape:label="Layer 1"
     inkscape:groupmode="layer"
     id="layer1" />
  <g
     transform="translate(0,103)"
     inkscape:label="newlayer"
     inkscape:groupmode="layer"
     id="g4816" />
  <g
     id="g5003"
     inkscape:groupmode="layer"
     inkscape:label="newlayer" />
  <path
     id="path5005"
     inkscape:label="part"
     style="stroke:#000000;stroke-width:0.050799999999;fill:none"
     d="M 142.0,196.0 L 148.291052636,196.0 L 148.291052636,193.0 L 154.551052627,193.0 L 154.551052627,196.0 L 160.712105268,196.0 L 160.712105268,193.0 L 166.972105258,193.0 L 166.972105258,196.0 L 173.1331579,196.0 L 173.1331579,193.0 L 179.39315789,193.0 L 179.39315789,196.0 L 185.554210531,196.0 L 185.554210531,193.0 L 191.814210522,193.0 L 191.814210522,196.0 L 197.975263163,196.0 L 197.975263163,193.0 L 204.235263153,193.0 L 204.235263153,196.0 L 210.396315794,196.0 L 210.396315794,193.0 L 216.656315785,193.0 L 216.656315785,196.0 L 222.817368426,196.0 L 222.817368426,193.0 L 229.077368416,193.0 L 229.077368416,196.0 L 235.238421057,196.0 L 235.238421057,193.0 L 241.498421048,193.0 L 241.498421048,196.0 L 247.659473689,196.0 L 247.659473689,193.0 L 253.919473679,193.0 L 253.919473679,196.0 L 260.080526321,196.0 L 260.080526321,193.0 L 266.340526311,193.0 L 266.340526311,196.0 L 272.501578952,196.0 L 272.501578952,193.0 L 278.761578943,193.0 L 278.761578943,196.0 L 284.922631584,196.0 L 284.922631584,193.0 L 291.182631574,193.0 L 291.182631574,196.0 L 297.343684215,196.0 L 297.343684215,193.0 L 303.603684206,193.0 L 303.603684206,196.0 L 309.764736847,196.0 L 309.764736847,193.0 L 316.024736837,193.0 L 316.024736837,196.0 L 322.185789478,196.0 L 322.185789478,193.0 L 328.445789469,193.0 L 328.445789469,196.0 L 334.60684211,196.0 L 334.60684211,193.0 L 340.8668421,193.0 L 340.8668421,196.0 L 347.027894742,196.0 L 347.027894742,193.0 L 353.287894732,193.0 L 353.287894732,196.0 L 359.448947373,196.0 L 359.448947373,193.0 L 365.708947364,193.0 L 365.708947364,196.0 L 372.0,196.0 " />
  <path
     id="path5007"
     inkscape:label="part"
     style="stroke:#000000;stroke-width:0.050799999999;fill:none"
     d="M 372.0,196.0 L 372.0,199.296666662 L 369.0,199.296666662 L 369.0,205.036666671 L 372.0,205.036666671 L 372.0,211.463333329 L 369.0,211.463333329 L 369.0,217.203333338 L 372.0,217.203333338 L 372.0,223.629999995 L 369.0,223.629999995 L 369.0,229.370000005 L 372.0,229.370000005 L 372.0,235.796666662 L 369.0,235.796666662 L 369.0,241.536666671 L 372.0,241.536666671 L 372.0,247.963333329 L 369.0,247.963333329 L 369.0,253.703333338 L 372.0,253.703333338 L 372.0,260.129999995 L 369.0,260.129999995 L 369.0,265.870000005 L 372.0,265.870000005 L 372.0,272.296666662 L 369.0,272.296666662 L 369.0,278.036666671 L 372.0,278.036666671 L 372.0,284.463333329 L 369.0,284.463333329 L 369.0,290.203333338 L 372.0,290.203333338 L 372.0,296.629999995 L 369.0,296.629999995 L 369.0,302.370000005 L 372.0,302.370000005 L 372.0,308.796666662 L 369.0,308.796666662 L 369.0,314.536666671 L 372.0,314.536666671 L 372.0,320.963333329 L 369.0,320.963333329 L 369.0,326.703333338 L 372.0,326.703333338 L 372.0,330.0 " />
  <path
     id="path5009"
     inkscape:label="part"
     style="stroke:#000000;stroke-width:0.050799999999;fill:none"
     d="M 372.0,330.0 L 365.708947364,330.0 L 365.708947364,330.0 L 359.448947373,330.0 L 359.448947373,330.0 L 353.287894732,330.0 L 353.287894732,330.0 L 347.027894742,330.0 L 347.027894742,330.0 L 340.8668421,330.0 L 340.8668421,330.0 L 334.60684211,330.0 L 334.60684211,330.0 L 328.445789469,330.0 L 328.445789469,330.0 L 322.185789478,330.0 L 322.185789478,330.0 L 316.024736837,330.0 L 316.024736837,330.0 L 309.764736847,330.0 L 309.764736847,330.0 L 303.603684206,330.0 L 303.603684206,330.0 L 297.343684215,330.0 L 297.343684215,330.0 L 291.182631574,330.0 L 291.182631574,330.0 L 284.922631584,330.0 L 284.922631584,330.0 L 278.761578943,330.0 L 278.761578943,330.0 L 272.501578952,330.0 L 272.501578952,330.0 L 266.340526311,330.0 L 266.340526311,330.0 L 260.080526321,330.0 L 260.080526321,330.0 L 253.919473679,330.0 L 253.919473679,330.0 L 247.659473689,330.0 L 247.659473689,330.0 L 241.498421048,330.0 L 241.498421048,330.0 L 235.238421057,330.0 L 235.238421057,330.0 L 229.077368416,330.0 L 229.077368416,330.0 L 222.817368426,330.0 L 222.817368426,330.0 L 216.656315785,330.0 L 216.656315785,330.0 L 210.396315794,330.0 L 210.396315794,330.0 L 204.235263153,330.0 L 204.235263153,330.0 L 197.975263163,330.0 L 197.975263163,330.0 L 191.814210522,330.0 L 191.814210522,330.0 L 185.554210531,330.0 L 185.554210531,330.0 L 179.39315789,330.0 L 179.39315789,330.0 L 173.1331579,330.0 L 173.1331579,330.0 L 166.972105258,330.0 L 166.972105258,330.0 L 160.712105268,330.0 L 160.712105268,330.0 L 154.551052627,330.0 L 154.551052627,330.0 L 148.291052636,330.0 L 148.291052636,330.0 L 142.0,330.0 " />
  <path
     id="path5011"
     inkscape:label="part"
     style="stroke:#000000;stroke-width:0.050799999999;fill:none"
     d="M 142.0,330.0 L 142.0,326.703333338 L 145.0,326.703333338 L 145.0,320.963333329 L 142.0,320.963333329 L 142.0,314.536666671 L 145.0,314.536666671 L 145.0,308.796666662 L 142.0,308.796666662 L 142.0,302.370000005 L 145.0,302.370000005 L 145.0,296.629999995 L 142.0,296.629999995 L 142.0,290.203333338 L 145.0,290.203333338 L 145.0,284.463333329 L 142.0,284.463333329 L 142.0,278.036666671 L 145.0,278.036666671 L 145.0,272.296666662 L 142.0,272.296666662 L 142.0,265.870000005 L 145.0,265.870000005 L 145.0,260.129999995 L 142.0,260.129999995 L 142.0,253.703333338 L 145.0,253.703333338 L 145.0,247.963333329 L 142.0,247.963333329 L 142.0,241.536666671 L 145.0,241.536666671 L 145.0,235.796666662 L 142.0,235.796666662 L 142.0,229.370000005 L 145.0,229.370000005 L 145.0,223.629999995 L 142.0,223.629999995 L 142.0,217.203333338 L 145.0,217.203333338 L 145.0,211.463333329 L 142.0,211.463333329 L 142.0,205.036666671 L 145.0,205.036666671 L 145.0,199.296666662 L 142.0,199.296666662 L 142.0,196.0 " />
  <path
     id="path5013"
     inkscape:label="part"
     style="stroke:#000000;stroke-width:0.050799999999;fill:none"
     d="M 4.0,145.0 L 7.03666667144,145.0 L 7.03666667144,142.0 L 13.2966666619,142.0 L 13.2966666619,145.0 L 19.2033333381,145.0 L 19.2033333381,142.0 L 25.4633333286,142.0 L 25.4633333286,145.0 L 31.3700000048,145.0 L 31.3700000048,142.0 L 37.6299999952,142.0 L 37.6299999952,145.0 L 43.5366666714,145.0 L 43.5366666714,142.0 L 49.7966666619,142.0 L 49.7966666619,145.0 L 55.7033333381,145.0 L 55.7033333381,142.0 L 61.9633333286,142.0 L 61.9633333286,145.0 L 67.8700000048,145.0 L 67.8700000048,142.0 L 74.1299999952,142.0 L 74.1299999952,145.0 L 80.0366666714,145.0 L 80.0366666714,142.0 L 86.2966666619,142.0 L 86.2966666619,145.0 L 92.2033333381,145.0 L 92.2033333381,142.0 L 98.4633333286,142.0 L 98.4633333286,145.0 L 104.370000005,145.0 L 104.370000005,142.0 L 110.629999995,142.0 L 110.629999995,145.0 L 116.536666671,145.0 L 116.536666671,142.0 L 122.796666662,142.0 L 122.796666662,145.0 L 128.703333338,145.0 L 128.703333338,142.0 L 134.963333329,142.0 L 134.963333329,145.0 L 138.0,145.0 " />
  <path
     id="path5015"
     inkscape:label="part"
     style="stroke:#000000;stroke-width:0.050799999999;fill:none"
     d="M 138.0,145.0 L 138.0,149.870000005 L 141.0,149.870000005 L 141.0,156.129999995 L 138.0,156.129999995 L 138.0,163.870000005 L 141.0,163.870000005 L 141.0,170.129999995 L 138.0,170.129999995 L 138.0,177.870000005 L 141.0,177.870000005 L 141.0,184.129999995 L 138.0,184.129999995 L 138.0,189.0 " />
  <path
     id="path5017"
     inkscape:label="part"
     style="stroke:#000000;stroke-width:0.050799999999;fill:none"
     d="M 138.0,189.0 L 134.963333329,189.0 L 134.963333329,192.0 L 128.703333338,192.0 L 128.703333338,189.0 L 122.796666662,189.0 L 122.796666662,192.0 L 116.536666671,192.0 L 116.536666671,189.0 L 110.629999995,189.0 L 110.629999995,192.0 L 104.370000005,192.0 L 104.370000005,189.0 L 98.4633333286,189.0 L 98.4633333286,192.0 L 92.2033333381,192.0 L 92.2033333381,189.0 L 86.2966666619,189.0 L 86.2966666619,192.0 L 80.0366666714,192.0 L 80.0366666714,189.0 L 74.1299999952,189.0 L 74.1299999952,192.0 L 67.8700000048,192.0 L 67.8700000048,189.0 L 61.9633333286,189.0 L 61.9633333286,192.0 L 55.7033333381,192.0 L 55.7033333381,189.0 L 49.7966666619,189.0 L 49.7966666619,192.0 L 43.5366666714,192.0 L 43.5366666714,189.0 L 37.6299999952,189.0 L 37.6299999952,192.0 L 31.3700000048,192.0 L 31.3700000048,189.0 L 25.4633333286,189.0 L 25.4633333286,192.0 L 19.2033333381,192.0 L 19.2033333381,189.0 L 13.2966666619,189.0 L 13.2966666619,192.0 L 7.03666667144,192.0 L 7.03666667144,189.0 L 4.0,189.0 " />
  <path
     id="path5019"
     inkscape:label="part"
     style="stroke:#000000;stroke-width:0.050799999999;fill:none"
     d="M 4.0,189.0 L 4.0,184.129999995 L 4.0,184.129999995 L 4.0,177.870000005 L 4.0,177.870000005 L 4.0,170.129999995 L 4.0,170.129999995 L 4.0,163.870000005 L 4.0,163.870000005 L 4.0,156.129999995 L 4.0,156.129999995 L 4.0,149.870000005 L 4.0,149.870000005 L 4.0,145.0 " />
  <path
     id="path5021"
     inkscape:label="part"
     style="stroke:#000000;stroke-width:0.050799999999;fill:none"
     d="M 142.0,142.0 L 148.551052627,142.0 L 148.551052627,145.0 L 154.291052636,145.0 L 154.291052636,142.0 L 160.972105258,142.0 L 160.972105258,145.0 L 166.712105268,145.0 L 166.712105268,142.0 L 173.39315789,142.0 L 173.39315789,145.0 L 179.1331579,145.0 L 179.1331579,142.0 L 185.814210522,142.0 L 185.814210522,145.0 L 191.554210531,145.0 L 191.554210531,142.0 L 198.235263153,142.0 L 198.235263153,145.0 L 203.975263163,145.0 L 203.975263163,142.0 L 210.656315785,142.0 L 210.656315785,145.0 L 216.396315794,145.0 L 216.396315794,142.0 L 223.077368416,142.0 L 223.077368416,145.0 L 228.817368426,145.0 L 228.817368426,142.0 L 235.498421048,142.0 L 235.498421048,145.0 L 241.238421057,145.0 L 241.238421057,142.0 L 247.919473679,142.0 L 247.919473679,145.0 L 253.659473689,145.0 L 253.659473689,142.0 L 260.340526311,142.0 L 260.340526311,145.0 L 266.080526321,145.0 L 266.080526321,142.0 L 272.761578943,142.0 L 272.761578943,145.0 L 278.501578952,145.0 L 278.501578952,142.0 L 285.182631574,142.0 L 285.182631574,145.0 L 290.922631584,145.0 L 290.922631584,142.0 L 297.603684206,142.0 L 297.603684206,145.0 L 303.343684215,145.0 L 303.343684215,142.0 L 310.024736837,142.0 L 310.024736837,145.0 L 315.764736847,145.0 L 315.764736847,142.0 L 322.445789469,142.0 L 322.445789469,145.0 L 328.185789478,145.0 L 328.185789478,142.0 L 334.8668421,142.0 L 334.8668421,145.0 L 340.60684211,145.0 L 340.60684211,142.0 L 347.287894732,142.0 L 347.287894732,145.0 L 353.027894742,145.0 L 353.027894742,142.0 L 359.708947364,142.0 L 359.708947364,145.0 L 365.448947373,145.0 L 365.448947373,142.0 L 372.0,142.0 " />
  <path
     id="path5023"
     inkscape:label="part"
     style="stroke:#000000;stroke-width:0.050799999999;fill:none"
     d="M 372.0,142.0 L 372.0,150.129999995 L 369.0,150.129999995 L 369.0,155.870000005 L 372.0,155.870000005 L 372.0,164.129999995 L 369.0,164.129999995 L 369.0,169.870000005 L 372.0,169.870000005 L 372.0,178.129999995 L 369.0,178.129999995 L 369.0,183.870000005 L 372.0,183.870000005 L 372.0,192.0 " />
  <path
     id="path5025"
     inkscape:label="part"
     style="stroke:#000000;stroke-width:0.050799999999;fill:none"
     d="M 372.0,192.0 L 365.448947373,192.0 L 365.448947373,189.0 L 359.708947364,189.0 L 359.708947364,192.0 L 353.027894742,192.0 L 353.027894742,189.0 L 347.287894732,189.0 L 347.287894732,192.0 L 340.60684211,192.0 L 340.60684211,189.0 L 334.8668421,189.0 L 334.8668421,192.0 L 328.185789478,192.0 L 328.185789478,189.0 L 322.445789469,189.0 L 322.445789469,192.0 L 315.764736847,192.0 L 315.764736847,189.0 L 310.024736837,189.0 L 310.024736837,192.0 L 303.343684215,192.0 L 303.343684215,189.0 L 297.603684206,189.0 L 297.603684206,192.0 L 290.922631584,192.0 L 290.922631584,189.0 L 285.182631574,189.0 L 285.182631574,192.0 L 278.501578952,192.0 L 278.501578952,189.0 L 272.761578943,189.0 L 272.761578943,192.0 L 266.080526321,192.0 L 266.080526321,189.0 L 260.340526311,189.0 L 260.340526311,192.0 L 253.659473689,192.0 L 253.659473689,189.0 L 247.919473679,189.0 L 247.919473679,192.0 L 241.238421057,192.0 L 241.238421057,189.0 L 235.498421048,189.0 L 235.498421048,192.0 L 228.817368426,192.0 L 228.817368426,189.0 L 223.077368416,189.0 L 223.077368416,192.0 L 216.396315794,192.0 L 216.396315794,189.0 L 210.656315785,189.0 L 210.656315785,192.0 L 203.975263163,192.0 L 203.975263163,189.0 L 198.235263153,189.0 L 198.235263153,192.0 L 191.554210531,192.0 L 191.554210531,189.0 L 185.814210522,189.0 L 185.814210522,192.0 L 179.1331579,192.0 L 179.1331579,189.0 L 173.39315789,189.0 L 173.39315789,192.0 L 166.712105268,192.0 L 166.712105268,189.0 L 160.972105258,189.0 L 160.972105258,192.0 L 154.291052636,192.0 L 154.291052636,189.0 L 148.551052627,189.0 L 148.551052627,192.0 L 142.0,192.0 " />
  <path
     id="path5027"
     inkscape:label="part"
     style="stroke:#000000;stroke-width:0.050799999999;fill:none"
     d="M 142.0,192.0 L 142.0,183.870000005 L 145.0,183.870000005 L 145.0,178.129999995 L 142.0,178.129999995 L 142.0,169.870000005 L 145.0,169.870000005 L 145.0,164.129999995 L 142.0,164.129999995 L 142.0,155.870000005 L 145.0,155.870000005 L 145.0,150.129999995 L 142.0,150.129999995 L 142.0,142.0 " />
  <path
     id="path5029"
     inkscape:label="part"
     style="stroke:#000000;stroke-width:0.050799999999;fill:none"
     d="M 376.0,145.0 L 379.036666671,145.0 L 379.036666671,142.0 L 385.296666662,142.0 L 385.296666662,145.0 L 391.203333338,145.0 L 391.203333338,142.0 L 397.463333329,142.0 L 397.463333329,145.0 L 403.370000005,145.0 L 403.370000005,142.0 L 409.629999995,142.0 L 409.629999995,145.0 L 415.536666671,145.0 L 415.536666671,142.0 L 421.796666662,142.0 L 421.796666662,145.0 L 427.703333338,145.0 L 427.703333338,142.0 L 433.963333329,142.0 L 433.963333329,145.0 L 439.870000005,145.0 L 439.870000005,142.0 L 446.129999995,142.0 L 446.129999995,145.0 L 452.036666671,145.0 L 452.036666671,142.0 L 458.296666662,142.0 L 458.296666662,145.0 L 464.203333338,145.0 L 464.203333338,142.0 L 470.463333329,142.0 L 470.463333329,145.0 L 476.370000005,145.0 L 476.370000005,142.0 L 482.629999995,142.0 L 482.629999995,145.0 L 488.536666671,145.0 L 488.536666671,142.0 L 494.796666662,142.0 L 494.796666662,145.0 L 500.703333338,145.0 L 500.703333338,142.0 L 506.963333329,142.0 L 506.963333329,145.0 L 510.0,145.0 " />
  <path
     id="path5031"
     inkscape:label="part"
     style="stroke:#000000;stroke-width:0.050799999999;fill:none"
     d="M 510.0,145.0 L 510.0,149.870000005 L 510.0,149.870000005 L 510.0,156.129999995 L 510.0,156.129999995 L 510.0,163.870000005 L 510.0,163.870000005 L 510.0,170.129999995 L 510.0,170.129999995 L 510.0,177.870000005 L 510.0,177.870000005 L 510.0,184.129999995 L 510.0,184.129999995 L 510.0,189.0 " />
  <path
     id="path5033"
     inkscape:label="part"
     style="stroke:#000000;stroke-width:0.050799999999;fill:none"
     d="M 510.0,189.0 L 506.963333329,189.0 L 506.963333329,192.0 L 500.703333338,192.0 L 500.703333338,189.0 L 494.796666662,189.0 L 494.796666662,192.0 L 488.536666671,192.0 L 488.536666671,189.0 L 482.629999995,189.0 L 482.629999995,192.0 L 476.370000005,192.0 L 476.370000005,189.0 L 470.463333329,189.0 L 470.463333329,192.0 L 464.203333338,192.0 L 464.203333338,189.0 L 458.296666662,189.0 L 458.296666662,192.0 L 452.036666671,192.0 L 452.036666671,189.0 L 446.129999995,189.0 L 446.129999995,192.0 L 439.870000005,192.0 L 439.870000005,189.0 L 433.963333329,189.0 L 433.963333329,192.0 L 427.703333338,192.0 L 427.703333338,189.0 L 421.796666662,189.0 L 421.796666662,192.0 L 415.536666671,192.0 L 415.536666671,189.0 L 409.629999995,189.0 L 409.629999995,192.0 L 403.370000005,192.0 L 403.370000005,189.0 L 397.463333329,189.0 L 397.463333329,192.0 L 391.203333338,192.0 L 391.203333338,189.0 L 385.296666662,189.0 L 385.296666662,192.0 L 379.036666671,192.0 L 379.036666671,189.0 L 376.0,189.0 " />
  <path
     id="path5035"
     inkscape:label="part"
     style="stroke:#000000;stroke-width:0.050799999999;fill:none"
     d="M 376.0,189.0 L 376.0,184.129999995 L 373.0,184.129999995 L 373.0,177.870000005 L 376.0,177.870000005 L 376.0,170.129999995 L 373.0,170.129999995 L 373.0,163.870000005 L 376.0,163.870000005 L 376.0,156.129999995 L 373.0,156.129999995 L 373.0,149.870000005 L 376.0,149.870000005 L 376.0,145.0 " />
  <path
     id="path5037"
     inkscape:label="part"
     style="stroke:#000000;stroke-width:0.050799999999;fill:none"
     d="M 514.0,142.0 L 520.551052627,142.0 L 520.551052627,142.0 L 526.291052636,142.0 L 526.291052636,142.0 L 532.972105258,142.0 L 532.972105258,142.0 L 538.712105268,142.0 L 538.712105268,142.0 L 545.39315789,142.0 L 545.39315789,142.0 L 551.1331579,142.0 L 551.1331579,142.0 L 557.814210522,142.0 L 557.814210522,142.0 L 563.554210531,142.0 L 563.554210531,142.0 L 570.235263153,142.0 L 570.235263153,142.0 L 575.975263163,142.0 L 575.975263163,142.0 L 582.656315785,142.0 L 582.656315785,142.0 L 588.396315794,142.0 L 588.396315794,142.0 L 595.077368416,142.0 L 595.077368416,142.0 L 600.817368426,142.0 L 600.817368426,142.0 L 607.498421048,142.0 L 607.498421048,142.0 L 613.238421057,142.0 L 613.238421057,142.0 L 619.919473679,142.0 L 619.919473679,142.0 L 625.659473689,142.0 L 625.659473689,142.0 L 632.340526311,142.0 L 632.340526311,142.0 L 638.080526321,142.0 L 638.080526321,142.0 L 644.761578943,142.0 L 644.761578943,142.0 L 650.501578952,142.0 L 650.501578952,142.0 L 657.182631574,142.0 L 657.182631574,142.0 L 662.922631584,142.0 L 662.922631584,142.0 L 669.603684206,142.0 L 669.603684206,142.0 L 675.343684215,142.0 L 675.343684215,142.0 L 682.024736837,142.0 L 682.024736837,142.0 L 687.764736847,142.0 L 687.764736847,142.0 L 694.445789469,142.0 L 694.445789469,142.0 L 700.185789478,142.0 L 700.185789478,142.0 L 706.8668421,142.0 L 706.8668421,142.0 L 712.60684211,142.0 L 712.60684211,142.0 L 719.287894732,142.0 L 719.287894732,142.0 L 725.027894742,142.0 L 725.027894742,142.0 L 731.708947364,142.0 L 731.708947364,142.0 L 737.448947373,142.0 L 737.448947373,142.0 L 744.0,142.0 " />
  <path
     id="path5039"
     inkscape:label="part"
     style="stroke:#000000;stroke-width:0.050799999999;fill:none"
     d="M 744.0,142.0 L 744.0,150.129999995 L 744.0,150.129999995 L 744.0,155.870000005 L 744.0,155.870000005 L 744.0,164.129999995 L 744.0,164.129999995 L 744.0,169.870000005 L 744.0,169.870000005 L 744.0,178.129999995 L 744.0,178.129999995 L 744.0,183.870000005 L 744.0,183.870000005 L 744.0,192.0 " />
  <path
     id="path5041"
     inkscape:label="part"
     style="stroke:#000000;stroke-width:0.050799999999;fill:none"
     d="M 744.0,192.0 L 737.448947373,192.0 L 737.448947373,192.0 L 731.708947364,192.0 L 731.708947364,192.0 L 725.027894742,192.0 L 725.027894742,192.0 L 719.287894732,192.0 L 719.287894732,192.0 L 712.60684211,192.0 L 712.60684211,192.0 L 706.8668421,192.0 L 706.8668421,192.0 L 700.185789478,192.0 L 700.185789478,192.0 L 694.445789469,192.0 L 694.445789469,192.0 L 687.764736847,192.0 L 687.764736847,192.0 L 682.024736837,192.0 L 682.024736837,192.0 L 675.343684215,192.0 L 675.343684215,192.0 L 669.603684206,192.0 L 669.603684206,192.0 L 662.922631584,192.0 L 662.922631584,192.0 L 657.182631574,192.0 L 657.182631574,192.0 L 650.501578952,192.0 L 650.501578952,192.0 L 644.761578943,192.0 L 644.761578943,192.0 L 638.080526321,192.0 L 638.080526321,192.0 L 632.340526311,192.0 L 632.340526311,192.0 L 625.659473689,192.0 L 625.659473689,192.0 L 619.919473679,192.0 L 619.919473679,192.0 L 613.238421057,192.0 L 613.238421057,192.0 L 607.498421048,192.0 L 607.498421048,192.0 L 600.817368426,192.0 L 600.817368426,192.0 L 595.077368416,192.0 L 595.077368416,192.0 L 588.396315794,192.0 L 588.396315794,192.0 L 582.656315785,192.0 L 582.656315785,192.0 L 575.975263163,192.0 L 575.975263163,192.0 L 570.235263153,192.0 L 570.235263153,192.0 L 563.554210531,192.0 L 563.554210531,192.0 L 557.814210522,192.0 L 557.814210522,192.0 L 551.1331579,192.0 L 551.1331579,192.0 L 545.39315789,192.0 L 545.39315789,192.0 L 538.712105268,192.0 L 538.712105268,192.0 L 532.972105258,192.0 L 532.972105258,192.0 L 526.291052636,192.0 L 526.291052636,192.0 L 520.551052627,192.0 L 520.551052627,192.0 L 514.0,192.0 " />
  <path
     id="path5043"
     inkscape:label="part"
     style="stroke:#000000;stroke-width:0.050799999999;fill:none"
     d="M 514.0,192.0 L 514.0,183.870000005 L 514.0,183.870000005 L 514.0,178.129999995 L 514.0,178.129999995 L 514.0,169.870000005 L 514.0,169.870000005 L 514.0,164.129999995 L 514.0,164.129999995 L 514.0,155.870000005 L 514.0,155.870000005 L 514.0,150.129999995 L 514.0,150.129999995 L 514.0,142.0 " />
  <path
     id="path5045"
     inkscape:label="part"
     style="stroke:#000000;stroke-width:0.050799999999;fill:none"
     d="M 142.0,4.0 L 148.291052636,4.0 L 148.291052636,4.0 L 154.551052627,4.0 L 154.551052627,4.0 L 160.712105268,4.0 L 160.712105268,4.0 L 166.972105258,4.0 L 166.972105258,4.0 L 173.1331579,4.0 L 173.1331579,4.0 L 179.39315789,4.0 L 179.39315789,4.0 L 185.554210531,4.0 L 185.554210531,4.0 L 191.814210522,4.0 L 191.814210522,4.0 L 197.975263163,4.0 L 197.975263163,4.0 L 204.235263153,4.0 L 204.235263153,4.0 L 210.396315794,4.0 L 210.396315794,4.0 L 216.656315785,4.0 L 216.656315785,4.0 L 222.817368426,4.0 L 222.817368426,4.0 L 229.077368416,4.0 L 229.077368416,4.0 L 235.238421057,4.0 L 235.238421057,4.0 L 241.498421048,4.0 L 241.498421048,4.0 L 247.659473689,4.0 L 247.659473689,4.0 L 253.919473679,4.0 L 253.919473679,4.0 L 260.080526321,4.0 L 260.080526321,4.0 L 266.340526311,4.0 L 266.340526311,4.0 L 272.501578952,4.0 L 272.501578952,4.0 L 278.761578943,4.0 L 278.761578943,4.0 L 284.922631584,4.0 L 284.922631584,4.0 L 291.182631574,4.0 L 291.182631574,4.0 L 297.343684215,4.0 L 297.343684215,4.0 L 303.603684206,4.0 L 303.603684206,4.0 L 309.764736847,4.0 L 309.764736847,4.0 L 316.024736837,4.0 L 316.024736837,4.0 L 322.185789478,4.0 L 322.185789478,4.0 L 328.445789469,4.0 L 328.445789469,4.0 L 334.60684211,4.0 L 334.60684211,4.0 L 340.8668421,4.0 L 340.8668421,4.0 L 347.027894742,4.0 L 347.027894742,4.0 L 353.287894732,4.0 L 353.287894732,4.0 L 359.448947373,4.0 L 359.448947373,4.0 L 365.708947364,4.0 L 365.708947364,4.0 L 372.0,4.0 " />
  <path
     id="path5047"
     inkscape:label="part"
     style="stroke:#000000;stroke-width:0.050799999999;fill:none"
     d="M 372.0,4.0 L 372.0,7.2966666619 L 369.0,7.2966666619 L 369.0,13.0366666714 L 372.0,13.0366666714 L 372.0,19.4633333286 L 369.0,19.4633333286 L 369.0,25.2033333381 L 372.0,25.2033333381 L 372.0,31.6299999952 L 369.0,31.6299999952 L 369.0,37.3700000048 L 372.0,37.3700000048 L 372.0,43.7966666619 L 369.0,43.7966666619 L 369.0,49.5366666714 L 372.0,49.5366666714 L 372.0,55.9633333286 L 369.0,55.9633333286 L 369.0,61.7033333381 L 372.0,61.7033333381 L 372.0,68.1299999952 L 369.0,68.1299999952 L 369.0,73.8700000048 L 372.0,73.8700000048 L 372.0,80.2966666619 L 369.0,80.2966666619 L 369.0,86.0366666714 L 372.0,86.0366666714 L 372.0,92.4633333286 L 369.0,92.4633333286 L 369.0,98.2033333381 L 372.0,98.2033333381 L 372.0,104.629999995 L 369.0,104.629999995 L 369.0,110.370000005 L 372.0,110.370000005 L 372.0,116.796666662 L 369.0,116.796666662 L 369.0,122.536666671 L 372.0,122.536666671 L 372.0,128.963333329 L 369.0,128.963333329 L 369.0,134.703333338 L 372.0,134.703333338 L 372.0,138.0 " />
  <path
     id="path5049"
     inkscape:label="part"
     style="stroke:#000000;stroke-width:0.050799999999;fill:none"
     d="M 372.0,138.0 L 365.708947364,138.0 L 365.708947364,141.0 L 359.448947373,141.0 L 359.448947373,138.0 L 353.287894732,138.0 L 353.287894732,141.0 L 347.027894742,141.0 L 347.027894742,138.0 L 340.8668421,138.0 L 340.8668421,141.0 L 334.60684211,141.0 L 334.60684211,138.0 L 328.445789469,138.0 L 328.445789469,141.0 L 322.185789478,141.0 L 322.185789478,138.0 L 316.024736837,138.0 L 316.024736837,141.0 L 309.764736847,141.0 L 309.764736847,138.0 L 303.603684206,138.0 L 303.603684206,141.0 L 297.343684215,141.0 L 297.343684215,138.0 L 291.182631574,138.0 L 291.182631574,141.0 L 284.922631584,141.0 L 284.922631584,138.0 L 278.761578943,138.0 L 278.761578943,141.0 L 272.501578952,141.0 L 272.501578952,138.0 L 266.340526311,138.0 L 266.340526311,141.0 L 260.080526321,141.0 L 260.080526321,138.0 L 253.919473679,138.0 L 253.919473679,141.0 L 247.659473689,141.0 L 247.659473689,138.0 L 241.498421048,138.0 L 241.498421048,141.0 L 235.238421057,141.0 L 235.238421057,138.0 L 229.077368416,138.0 L 229.077368416,141.0 L 222.817368426,141.0 L 222.817368426,138.0 L 216.656315785,138.0 L 216.656315785,141.0 L 210.396315794,141.0 L 210.396315794,138.0 L 204.235263153,138.0 L 204.235263153,141.0 L 197.975263163,141.0 L 197.975263163,138.0 L 191.814210522,138.0 L 191.814210522,141.0 L 185.554210531,141.0 L 185.554210531,138.0 L 179.39315789,138.0 L 179.39315789,141.0 L 173.1331579,141.0 L 173.1331579,138.0 L 166.972105258,138.0 L 166.972105258,141.0 L 160.712105268,141.0 L 160.712105268,138.0 L 154.551052627,138.0 L 154.551052627,141.0 L 148.291052636,141.0 L 148.291052636,138.0 L 142.0,138.0 " />
  <path
     id="path5051"
     inkscape:label="part"
     style="stroke:#000000;stroke-width:0.050799999999;fill:none"
     d="M 142.0,138.0 L 142.0,134.703333338 L 145.0,134.703333338 L 145.0,128.963333329 L 142.0,128.963333329 L 142.0,122.536666671 L 145.0,122.536666671 L 145.0,116.796666662 L 142.0,116.796666662 L 142.0,110.370000005 L 145.0,110.370000005 L 145.0,104.629999995 L 142.0,104.629999995 L 142.0,98.2033333381 L 145.0,98.2033333381 L 145.0,92.4633333286 L 142.0,92.4633333286 L 142.0,86.0366666714 L 145.0,86.0366666714 L 145.0,80.2966666619 L 142.0,80.2966666619 L 142.0,73.8700000048 L 145.0,73.8700000048 L 145.0,68.1299999952 L 142.0,68.1299999952 L 142.0,61.7033333381 L 145.0,61.7033333381 L 145.0,55.9633333286 L 142.0,55.9633333286 L 142.0,49.5366666714 L 145.0,49.5366666714 L 145.0,43.7966666619 L 142.0,43.7966666619 L 142.0,37.3700000048 L 145.0,37.3700000048 L 145.0,31.6299999952 L 142.0,31.6299999952 L 142.0,25.2033333381 L 145.0,25.2033333381 L 145.0,19.4633333286 L 142.0,19.4633333286 L 142.0,13.0366666714 L 145.0,13.0366666714 L 145.0,7.2966666619 L 142.0,7.2966666619 L 142.0,4.0 " />
</svg>
